<svg xmlns="http://www.w3.org/2000/svg" width="24" height="24" viewBox="0 0 24 24"><path fill="none" d="M0,0H24V24H0Z" data-name="Path 3722"/><path fill="#525863" d="M22.317,14.367A8.825,8.825,0,0,0,23.9,9.4,5.036,5.036,0,0,0,18.65,4,5.036,5.036,0,0,0,13.4,9.4a8.787,8.787,0,0,0,1.746,5.188C12.811,15.522,11,18.478,11,19.794v.667A1.547,1.547,0,0,0,12.547,22H25.353A1.547,1.547,0,0,0,26.9,20.461v-.667C26.9,18.344,25.067,14.9,22.317,14.367ZM18.65,5.8c2.16,0,3.45,1.346,3.45,3.6,0,2.624-1.773,5.4-3.45,5.4S15.2,12.024,15.2,9.4C15.2,7.146,16.49,5.8,18.65,5.8ZM12.8,20.2v-.405c.009-.7,1.735-3.507,3.616-3.691.118-.011.243-.022.371-.031a3.561,3.561,0,0,0,3.807-.049c.432.019.836.046,1.19.08,1.881.183,3.307,2.986,3.316,3.69V20.2Z" data-name="Path 2726" transform="translate(-6.8 -1)"/></svg>